<?xml version="1.0" standalone="no"?>
<!DOCTYPE svg PUBLIC "-//W3C//DTD SVG 20010904//EN"
 "http://www.w3.org/TR/2001/REC-SVG-20010904/DTD/svg10.dtd">
<svg version="1.0" xmlns="http://www.w3.org/2000/svg"
 width="1280.000000pt" height="728.000000pt" viewBox="0 0 1280.000000 728.000000"
 preserveAspectRatio="xMidYMid meet">
<g transform="translate(0.000000,728.000000) scale(0.100000,-0.100000)"
fill="#000000" stroke="none">
<path d="M12325 7239 c-782 -102 -1178 -111 -1910 -45 -148 14 -310 28 -360
31 -99 8 -169 -5 -179 -31 -9 -23 54 -81 134 -124 l65 -35 -43 -6 c-102 -14
-79 -71 118 -293 236 -268 325 -377 433 -532 l57 -81 -88 -33 c-428 -161
-1405 -674 -3327 -1745 -3558 -1983 -5437 -3060 -6284 -3603 -418 -267 -769
-531 -904 -681 -93 -103 -27 -83 378 114 271 131 313 154 1275 683 2295 1262
5741 3197 7390 4150 676 390 1457 855 1587 943 23 16 46 29 51 29 28 0 203
-351 343 -687 71 -171 131 -294 153 -312 10 -9 16 -30 17 -60 0 -60 20 -115
41 -119 31 -6 69 50 160 238 300 618 390 786 563 1060 108 170 276 404 450
625 259 330 304 396 305 440 0 11 12 31 25 44 32 30 32 49 -1 61 -42 17 -135
10 -449 -31z m-15 -287 c-406 -318 -788 -884 -971 -1437 l-23 -70 -13 90 c-76
532 -383 1038 -798 1317 -49 33 -79 57 -65 54 467 -115 908 -133 1390 -54 132
21 348 74 440 107 74 27 81 26 40 -7z"/>
</g>
</svg>
