<?xml version="1.0" encoding="UTF-8"?>
<svg version="1.1" viewBox="0 0 262.77 279.69" xmlns="http://www.w3.org/2000/svg" xmlns:xlink="http://www.w3.org/1999/xlink">
 <defs>
  <radialGradient id="h" cx="444.77" cy="313.51" r="33.439" gradientTransform="matrix(1 0 0 .40737 0 185.8)" gradientUnits="userSpaceOnUse">
   <stop offset="0"/>
   <stop stop-opacity="0" offset="1"/>
  </radialGradient>
  <filter id="p" x="-.09228" y="-.82026" width="1.1846" height="2.6405" color-interpolation-filters="sRGB">
   <feGaussianBlur stdDeviation="2.1750499"/>
  </filter>
  <linearGradient id="o" x1="409.81" x2="411.13" y1="288.01" y2="258.63" gradientTransform="matrix(3.3234 0 0 3.3234 -1006.8 -1055.1)" gradientUnits="userSpaceOnUse" xlink:href="#c"/>
  <linearGradient id="c">
   <stop stop-color="#003c87" offset="0"/>
   <stop stop-color="#5cbcf0" offset=".7013"/>
   <stop stop-color="#5ce1f0" offset="1"/>
  </linearGradient>
  <linearGradient id="n" x1="398.46" x2="401.63" y1="263.21" y2="260.26" gradientTransform="matrix(3.3234 0 0 3.3234 -1006.8 -1055.1)" gradientUnits="userSpaceOnUse" xlink:href="#a"/>
  <linearGradient id="a">
   <stop stop-color="#003c87" offset="0"/>
   <stop stop-color="#5cbcf0" offset="1"/>
  </linearGradient>
  <linearGradient id="m" x1="395.47" x2="394.23" y1="275.06" y2="259.1" gradientTransform="matrix(3.3234 0 0 3.3234 -1006.8 -1055.1)" gradientUnits="userSpaceOnUse" xlink:href="#a"/>
  <linearGradient id="l" x1="420.01" x2="417.37" y1="277.7" y2="258.6" gradientTransform="matrix(3.3234 0 0 3.3234 -1006.8 -1055.1)" gradientUnits="userSpaceOnUse">
   <stop stop-color="#003c87" offset="0"/>
   <stop stop-color="#5cbcf0" offset=".57939"/>
   <stop stop-color="#5ce1f0" offset="1"/>
  </linearGradient>
  <linearGradient id="k" x1="418.3" x2="416.39" y1="275.4" y2="264.33" gradientTransform="matrix(4.5676 0 0 4.7707 -1528.5 -1453.2)" gradientUnits="userSpaceOnUse" xlink:href="#c"/>
  <linearGradient id="j" x1="395.21" x2="398.3" y1="260.96" y2="258.32" gradientTransform="matrix(3.3234 0 0 3.3234 -1006.8 -1055.1)" gradientUnits="userSpaceOnUse" xlink:href="#a"/>
  <linearGradient id="i" x1="409.81" x2="403.07" y1="278.09" y2="272.51" gradientTransform="matrix(3.3234 0 0 3.3234 -1006.8 -1055.1)" gradientUnits="userSpaceOnUse" xlink:href="#a"/>
  <radialGradient id="g" cx="449.25" cy="246.31" r="7" gradientTransform="matrix(.78659 .069273 -.062954 .62681 111.38 60.801)" gradientUnits="userSpaceOnUse" xlink:href="#b"/>
  <linearGradient id="b">
   <stop stop-color="#fff" offset="0"/>
   <stop stop-color="#fff" stop-opacity="0" offset="1"/>
  </linearGradient>
  <filter id="q" x="-.13673" y="-.15626" width="1.2735" height="1.3125" color-interpolation-filters="sRGB">
   <feGaussianBlur stdDeviation="0.79759409"/>
  </filter>
  <radialGradient id="f" cx="426.75" cy="265.19" r="4.25" gradientTransform="matrix(1.7353 0 0 1.6176 -318.51 -411.7)" gradientUnits="userSpaceOnUse" xlink:href="#b"/>
  <filter id="d" x="-.42845" y="-.4596" width="1.8569" height="1.9192" color-interpolation-filters="sRGB">
   <feGaussianBlur stdDeviation="2.6331522"/>
  </filter>
  <radialGradient id="e" cx="428.27" cy="269.39" r="4.25" gradientTransform="matrix(2.4468 -.98555 2.3377 5.8039 -1270.9 -1131.6)" gradientUnits="userSpaceOnUse">
   <stop stop-color="#fff" offset="0"/>
   <stop stop-color="#fff" stop-opacity="0" offset="1"/>
  </radialGradient>
 </defs>
 <g transform="translate(-211.47 -381.09)">
  <g transform="translate(-417.01 415.47)">
   <g transform="matrix(1.2656 0 0 1.2656 304.12 280.19)">
    <path transform="matrix(1.3494 0 0 2.733 -239.4 -943.72)" d="m473.05 313.51a28.284 3.182 0 1 1 -56.569 0 28.284 3.182 0 1 1 56.569 0z" fill="url(#h)" fill-rule="evenodd" filter="url(#p)" opacity=".77434"/>
    <path d="m344-107.84c0.22233 5.5424 0.13925 11.529-0.1193 16.446 2.4107 2.971 3.6147 3.5918 3.3512 6.0947-2.9265 1.9486-4.4494 4.7342-4.4494 8.7299 2.1974-2.6841 5.1808-4.0452 8.968-5.3076 4.5826 0.79958 6.0186 3.806 7.6868 6.7718 0.64095-6.1217-0.75431-8.6555-5.3076-10.798 4.0834-0.78748 5.7511 0.04022 8.0529 2.0132-0.58623-5.3174-4.3845-5.6113-9.151-6.4057-3.678-0.59206-2.8735-1.2854-4.2095-3.6604 0.27484-3.6018 0.52374-9.1948 0.52374-13.063-0.29812-0.92527-4.7561-1.4993-5.3458-0.82108z" fill="#deac20"/>
    <path d="m362.74-106.09c-0.21436 4.7004 1.6087 8.2533 4.0264 10.671 2.9128 2.2991 2.928 5.119 3.1113 8.6019 1.198-2.2786 2.9467-3.3299 4.7585-4.5755 5.365-0.46597 7.9743 0.97928 10.615 4.0264-1.253-7.0283-6.2812-8.4027-13.544-8.785-4.1647-2.3045-3.8434-6.3781-3.8434-11.22" fill="#deac20"/>
    <path d="m418.45-158.17c0.0605-1.7799 0.0717-3.4888 0.0332-5.1315-0.47874-19.697-7.555-13.392-26.592-22.35-20.072 2.5302-30.697 13.425-42.539 16.926-12.031 1.6394-16.736-1.0732-22.997-6.4395-0.24127-2.8849 3.6797-10.3 8.3783-12.773-6.1163-3.3498-10.296-0.66299-14.618 0.41768-0.13529-4.8703 3.2311-6.6083 5.4296-9.6063-11.228 0.49333-13.515 3.223-17.542 11.277-1.4564-7.4016 1.8627-8.8276 4.1766-12.53-29.054 5.7682-14.463 47.864-2.506 61.814-1.3525 6.6635-10.158 5.3175-15.85 7.6613 3.7205 5.7104 9.7552 7.6269 13.762 9.8806-3.4542 5.5737-8.7438 4.0213-11.695 4.1766 9.1465 7.8865 23.597 6.118 32.578 0.83534 0.69851 7.534-2.5883 7.4154-5.8473 10.442 8.0738 0.54348 14.538-3.4492 19.63-5.4296 20.338 9.8453 34.994-0.81756 50.12-7.9356 22.212-2.4439 32.449-15.741 37.59-34.248-2.7402 1.4404-5.538 1.0548-8.7709 1.6706 2.118-4.3842 4.6375-5.049 7.518-7.518-2.9976-0.50283-7.1175-0.64703-9.1886-0.8353 0 0-1.1081 0.87964-1.0679-0.30343z" fill="url(#o)"/>
    <path d="m319.11-177.02c-2.9868-9.1331 2.8136-14.782 13.763-11.621-8.0842 2.9576-10.115 10.003-6.8079 17.031-3.3308-1.3851-4.6974-3.1517-6.9554-5.4098z" fill="url(#n)"/>
    <path d="m312.15-135.03c-15.459-15.418-16.627-24.77-15.714-47.658-0.29212 27.173 12.652 59.156 40.445 26.276-3.7722 6.2456-19.136 19.828-24.73 21.382z" fill="url(#m)"/>
    <path d="m339.68-108.41c12.061-4.9599 22.35-21.67 25.358-32.957 24.84 21.08 41.89 1.6911 52.242-16.275l12.424-0.27086-8.2826 9.3181 8.8002-1.553c-6.6163 23.16-20.71 32.182-38.016 33.355-12.584 10.895-35.751 14.179-47.388 8.311" fill="#003c87"/>
    <path d="m362.5-187.76c-3.4927 3.3618-8.5202 14.034-8.2795 17.412 1.2102 16.983 5.7586 23.642 15.631 33.515 9.2178 7.4444 20.224 5.9849 29.11 1.8033 11.941-5.239 16.845-13.849 19.321-24.988 1.2012-8.3909 0.19242-17.713-3.0913-21.124-1.3777-2.8748-4.8062-12.42-23.355-16.542-15.322 7.0586-4.7148-0.38767-0.39284-3.8978-9.4827 2.3886-23.666 8.6988-28.943 13.822z" fill="url(#l)"/>
    <path d="m418.68-164.02c-0.42343 16.892-14.314 30.595-31.97 30.595-17.657 0-31.97-13.698-31.97-30.595s14.314-30.595 31.97-30.595c17.657 0 32.658 3.1558 31.97 30.595z" fill="url(#k)" fill-rule="evenodd"/>
    <path d="m370.63-135.8c11.889 7.0106 28.477 4.0388 37.096-3.3489-6.6363 13.317-28.553 14.998-37.096 3.3489z" fill="#002758"/>
    <path d="m397.33-142.82c0.27119 6.9037 5.3235 8.9986 10.249 9.5171 1.5148-2.0145 1.4723-4.6131 1.7607-7.3528-5.1328-2.0176-10.699-4.4586-13.392-4.2348" fill="#956806"/>
    <path d="m397.21-145.41c0.02 3.4365 4.0986 6.3738 8.912 8.3558 1.5528-1.9507 1.1902-5.2006 2.0153-7.4697-3.4243-1.2784-7.1945-0.88602-10.927-0.88602z" fill="#3d2420"/>
    <path d="m395.68-145.02c0.49775-7.5088 6.5841-11.531 13.177-10.066 5.394 4.0667 7.4665 8.4236 9.151 14.825-8.3188 2.1375-14.68-2.2092-22.328-4.7585z" fill="#eaca2e"/>
    <path d="m308.29-185.27c1.724-8.9832 6.9511-11.036 14.684-11.85-7.1899 4.1832-9.2735 10.435-7.4706 18.548-1.5307-4.5178-2.7907-4.8768-7.213-6.6978z" fill="url(#j)"/>
    <path d="m338.03-160.39c-5.9268 13.064-17.16 16.378-27.853 24.22-4.6309 2.8607-11.673 5.8869-16.717 6.7276 10.378 6.0597 14.202 11.687 23.191 0.60619-1.037 1.9836-6.3302 8.8444-8.3882 9.9616-2.7355 1.485-9.2653 3.6912-12.145 3.6912 7.8833 7.1509 26.282 3.6649 37.041-3.956-1.3834 4.6765-7.4609 13.162-10.405 15.37 22.57-0.31739 33.194-20.858 43.279-36.993-0.75248-1.2358-7.1702-10.151-10.612-19.299-0.59055-1.5697-1.8569-9.862 0.97107-16.718-2.421 2.75-2.9887 9.6467-2.7704 7.844 0 0-8.2539 3.7668-9.2066 3.4965-34.271-9.726-2.6911 9.527-12.384-2.2437-5.71-4.7017-13.141-6.5432 1.2223-20.904-16.376 0.78256-10.163 12.523-10.927 12.336-1.192-0.29246-11.794-3.2196-0.9216-20.088-9.5075 4.2094-11.625 5.3131-5.002 21.868-7.8129-3.5379-15.401-10.318-6.0548-22.637-11.178-0.96236-15.083 18.385-14.714 19.751 6.5611 24.272 13.266 27.402 24.382 29.051 4.1429 0.61446 12.526-4.9449 13.391-6.9647 0.88655-2.0704 5.1004-5.1185 4.6235-5.1185z" fill="url(#i)"/>
    <path transform="matrix(5.2839 0 0 5.4505 -1820.3 -1629.4)" d="m418.8 269.5a0.5426 0.56197 0 1 1 -1.0852 0 0.5426 0.56197 0 1 1 1.0852 0z" fill="#f2f2f2" fill-rule="evenodd"/>
    <g transform="matrix(3.3234 0 0 3.3234 -1000.7 -234.45)" fill-rule="evenodd">
     <path transform="matrix(1.4828 0 0 1.4828 -201.89 -377.35)" d="m418.8 269.5a0.5426 0.56197 0 1 1 -1.0852 0 0.5426 0.56197 0 1 1 1.0852 0z" fill="#666"/>
     <path transform="translate(.034031 -247.24)" d="m418.8 269.5a0.5426 0.56197 0 1 1 -1.0852 0 0.5426 0.56197 0 1 1 1.0852 0z"/>
    </g>
    <path transform="matrix(5.2839 0 0 4.9278 -1797.8 -1491.6)" d="m418.8 269.5a0.5426 0.56197 0 1 1 -1.0852 0 0.5426 0.56197 0 1 1 1.0852 0z" fill="#f2f2f2" fill-rule="evenodd"/>
    <g transform="matrix(3.3234 0 0 3.3234 -978.2 -237.15)" fill-rule="evenodd">
     <path transform="matrix(1.4828 0 0 1.4828 -201.89 -377.35)" d="m418.8 269.5a0.5426 0.56197 0 1 1 -1.0852 0 0.5426 0.56197 0 1 1 1.0852 0z" fill="#666"/>
     <path transform="translate(.034031 -247.24)" d="m418.8 269.5a0.5426 0.56197 0 1 1 -1.0852 0 0.5426 0.56197 0 1 1 1.0852 0z"/>
    </g>
    <path d="m341.54-108.76c12.555-7.3089 16.485-18.49 20.764-24.325-2.9533 7.826-7.871 22.135-16.08 25.542-2.1256-0.11831-3.1755-0.58226-4.6837-1.2173z" fill="#002758"/>
    <path d="m391.7-116.75c12.7-7.0304 13.89-17.13 14.753-16.555 1.3971 0.93082-6.7183 15.435-10.82 16.118" fill="#002758"/>
    <path d="m400.16-153.68 8.86 8.86c2.2954 3.4619 6.1864 4.031 8.2693 4.7253-8.2652 1.5975-16.164-1.8959-21.75-5.0382 0.45726-3.9032 2.2235-6.3783 4.6209-8.5471z" fill="#d3a92e"/>
    <path d="m349.33-106.36c0.0784 0.43483-0.11506 4.702-0.25626 12.783 1.5033 4.4692 7.096 2.2741 11.282 4.7931 1.3444 2.0393 1.4993 2.9907 1.8207 4.8235-2.9237-8.2047-8.193-3.8341-13.515-7.5815-0.14466 0.05787 0.72836-9.1059-4.2178-16.858 0.56735 1.0002 4.3787 1.8984 4.887 2.0396z" fill="#956806"/>
    <path transform="matrix(2.9771 0 0 3.1792 -941.19 -973.24)" d="m454.76 247.39c1.2897 3.1598-1.6422 5.0504-5.5082 5.0504s-7-2.7423-7-6.125 2.2125-3.4762 5.8525-2.2566c6.7348 2.2566 4.7049-1.4485 6.6557 3.3311z" fill="url(#g)" fill-rule="evenodd" filter="url(#q)"/>
    <path transform="matrix(1.3665 0 0 1.3665 -235.64 -181.14)" d="m429.41 17.281c0 3.797-3.3019 6.875-7.375 6.875s-7.375-3.078-7.375-6.875 3.3019-6.875 7.375-6.875 7.375 3.078 7.375 6.875z" fill="url(#f)" fill-rule="evenodd" filter="url(#d)"/>
    <path transform="matrix(1.3665 0 0 1.3665 -235.64 -181.14)" d="m421.91 11.531c0 3.797-2.0519 5.375-6.125 5.375s-20.625-9.328-20.625-13.125 3.3019-6.875 7.375-6.875 19.375 10.828 19.375 14.625z" fill="url(#e)" fill-rule="evenodd" filter="url(#d)"/>
    <path d="m408.68-155.12c5.0563 3.3599 8.1417 9.2327 9.0588 14.736-4.6567-1.6646-10.259-9.045-16.125-14.071 2.4458-0.68889 6.4158-0.82892 7.4282-0.60392" fill="#f1da6d"/>
    <path d="m362.97-105.36c4.2062 2.2108 4.5974 6.6165 8.0925 9.1796-3.0283-1.7772-3.1561-6.8526-3.5027-10.146-1.1948 0.6794-2.9218 0.8785-4.5898 0.9663z" fill="#956806"/>
    <path d="m370.33-87.239c1.4713-1.7043 1.9284-4.3141 2.8988-6.0392 1.7513 0.03867 2.7316 1.0006 3.7443 1.5702-3.8354-0.29488-5.007 2.5602-6.6431 4.469z" fill="#956806"/>
    <path d="m342.86-76.644c1.5769-5.795 2.8407-6.4335 6.0319-8.4367-0.87447-1.3962-0.76747-0.74985-1.7117-2.0374 0.61222 1.2951-0.82916 2.0907-0.98092 2.6219-2.1309 2.1712-3.0623 2.36-3.3393 7.8522z" fill="#956806"/>
    <path d="m359.34-75.523c-0.11547-5.9217-3.2459-9.2231-7.247-10.871 5.0004 0.84944 8.7512 3.67 7.247 10.871z" fill="#956806"/>
   </g>
  </g>
 </g>
</svg>
