<?xml version="1.0" encoding="UTF-8"?>
<svg version="1.1" viewBox="0 0 450 300" xmlns="http://www.w3.org/2000/svg" xmlns:xlink="http://www.w3.org/1999/xlink">
 <defs>
  <linearGradient id="b">
   <stop stop-color="#fff" offset="0"/>
   <stop stop-color="#d7eef4" offset="1"/>
  </linearGradient>
  <linearGradient id="a">
   <stop stop-color="#ebfbff" offset="0"/>
   <stop stop-color="#d5f6ff" offset="1"/>
  </linearGradient>
  <filter id="l" x="-.018652" y="-.515" width="1.0373" height="2.03" color-interpolation-filters="sRGB">
   <feGaussianBlur stdDeviation="2.6742672"/>
  </filter>
  <linearGradient id="n" x1="237.48" x2="237.48" y1="366.23" y2="526.18" gradientUnits="userSpaceOnUse" xlink:href="#a"/>
  <linearGradient id="o" x1="356.57" x2="356.57" y1="420.23" y2="526.18" gradientUnits="userSpaceOnUse" xlink:href="#a"/>
  <linearGradient id="p" x1="347.53" x2="346.15" y1="424.25" y2="319.22" gradientUnits="userSpaceOnUse" xlink:href="#a"/>
  <linearGradient id="q" x1="272.1" x2="272.1" y1="303.91" y2="461.47" gradientUnits="userSpaceOnUse">
   <stop stop-color="#fff" offset="0"/>
   <stop stop-color="#fff" stop-opacity="0" offset="1"/>
  </linearGradient>
  <linearGradient id="r" x1="235" x2="239.68" y1="-205" y2="374.32" gradientTransform="matrix(.85389 0 0 .77922 36.717 800.67)" gradientUnits="userSpaceOnUse">
   <stop stop-color="#8080ff" offset="0"/>
   <stop stop-color="#fff" offset="1"/>
  </linearGradient>
  <linearGradient id="s" x1="345" x2="345" y1="736.36" y2="794.58" gradientTransform="translate(-12,45)" gradientUnits="userSpaceOnUse" xlink:href="#b"/>
  <linearGradient id="t" x1="345" x2="345" y1="736.36" y2="794.58" gradientTransform="matrix(.6895 0 0 .6895 -.72147 292.82)" gradientUnits="userSpaceOnUse" xlink:href="#b"/>
  <filter id="m">
   <feGaussianBlur stdDeviation="1.4427753"/>
  </filter>
 </defs>
 <g transform="translate(0 -752.36)">
  <rect y="752.36" width="450" height="300" color="#000000" fill="url(#r)"/>
  <path d="m339 758.36c-13.072 0-24.255 3.2972-28.812 7.9688-3.2293-0.34392-6.6504-0.53125-10.188-0.53125-19.882 0-36 5.8387-36 13.031 0 1.9747 1.2322 3.8544 3.4062 5.5312-14.197 3.3913-23.406 8.823-23.406 14.938 0 6.6739 10.981 12.498 27.438 15.781-28.62 0.72-47.44 1.92-47.44 3.28h219c-9.7505-3.6069-45.848-0.72767-45-4.5625 0-1.3197-1.3186-2.54-3.5938-3.6562 14.148-1.091 24.594-4.8849 24.594-9.375 0-2.9437-4.4869-5.5694-11.562-7.3438 10.6-2.95 17.56-7.86 17.56-13.46 0-9.0421-18.132-16.375-40.5-16.375-4.7935 0-9.3573 0.35074-13.625 0.96875-2.0456-0.33117-4.1961-0.61937-6.4375-0.78125-5.6022-3.2768-14.904-5.4062-25.438-5.4062z" color="#000000" fill="url(#s)"/>
  <path d="m245.29 778.68c-9.0129 0-16.723 2.2735-19.866 5.4946-2.2266-0.23716-4.5855-0.36635-7.0242-0.36635-13.709 0-24.822 4.0258-24.822 8.9849 0 1.3616 0.84966 2.6576 2.3488 3.8139-9.789 2.3383-16.139 6.0834-16.139 10.299 0 4.6017 7.5711 8.6176 18.918 10.881-19.73 0.49-32.71 1.32-32.71 2.26h151c-6.7229-2.4869-31.612-0.50191-31.027-3.146 0-0.90978-0.9092-1.7513-2.4779-2.521 9.7548-0.75215 16.957-3.368 16.957-6.464 0-2.0297-3.0938-3.8401-7.9724-5.0634 7.3135-2.0355 12.109-5.426 12.109-9.2868 0-6.2345-12.502-11.291-27.924-11.291-3.3054 0-6.452 0.24194-9.3945 0.6681-1.4104-0.2284-2.8932-0.42718-4.4386-0.53874-3.8626-2.2593-10.277-3.7277-17.539-3.7277z" color="#000000" fill="#afdde9" filter="url(#m)" opacity=".22"/>
  <path d="m241.29 784.68c-9.0129 0-16.723 2.2735-19.866 5.4946-2.2266-0.23716-4.5855-0.36635-7.0242-0.36635-13.709 0-24.822 4.0258-24.822 8.9849 0 1.3616 0.84966 2.6576 2.3488 3.8139-9.789 2.3383-16.139 6.0834-16.139 10.299 0 4.6017 7.5711 8.6176 18.918 10.881-19.73 0.49-32.71 1.32-32.71 2.26h151c-6.7229-2.4869-31.612-0.50191-31.027-3.146 0-0.90978-0.9092-1.7513-2.4779-2.521 9.7548-0.75215 16.957-3.368 16.957-6.464 0-2.0297-3.0938-3.8401-7.9724-5.0634 7.3135-2.0355 12.109-5.426 12.109-9.2868 0-6.2345-12.502-11.291-27.924-11.291-3.3054 0-6.452 0.24194-9.3945 0.6681-1.4104-0.2284-2.8932-0.42718-4.4386-0.53874-3.8626-2.2593-10.277-3.7277-17.539-3.7277z" color="#000000" fill="url(#t)"/>
  <g transform="translate(-121.29 531.33)">
   <rect transform="matrix(.95517 0 0 .43236 15.567 284.6)" x="175.24" y="491.62" width="344.11" height="12.463" rx="8" ry="8" color="#000000" fill="#164450" filter="url(#l)" opacity=".33"/>
   <rect x="197.85" y="313.24" width="298.89" height="183.89" rx="5.5815" ry="5.5562" color="#000000" fill="#d5f6ff" stroke="#006680" stroke-width="5"/>
   <rect x="197.85" y="313.24" width="298.89" height="183.89" rx="5.5815" ry="5.5562" color="#000000" fill="url(#n)" stroke="#00222b" stroke-width="1.1138"/>
   <path d="m203.43 497.12h287.72c3.0922 0 5.5815-2.4781 5.5815-5.5562l-149.44-100.15-149.44 100.16c0 3.0782 2.4893 5.5562 5.5815 5.5562z" color="#000000" fill="url(#o)" stroke="#00222b" stroke-width=".5"/>
   <path d="m203.43 313.24h287.72c3.0922 0 5.5815 2.4781 5.5815 5.5562l-150.13 105.69-148.75-105.7c0-3.0782 2.4893-5.5562 5.5815-5.5562z" color="#000000" fill="#045" opacity=".66"/>
   <path d="m203.43 313.24h287.72c3.0922 0 5.5815 2.4781 5.5815 5.5562l-149.44 100.15-149.44-100.16c0-3.0782 2.4893-5.5562 5.5815-5.5562z" color="#000000" fill="url(#p)" stroke="#00222b" stroke-width="1.1138"/>
   <path d="m203.44 313.25c-3.0922 0-5.5938 2.4531-5.5938 5.5312v145.72c60.51-110.79 174.2-151.7 298.87-129.69v-16.031c0-3.0782-2.4704-5.5312-5.5625-5.5312z" color="#000000" fill="url(#q)" opacity=".66"/>
  </g>
 </g>
</svg>
