<?xml version="1.0" encoding="UTF-8"?>
<svg viewBox="0 0 371.8183 251.3788" xmlns="http://www.w3.org/2000/svg" xmlns:xlink="http://www.w3.org/1999/xlink">
 <defs>
  <filter id="z">
   <feGaussianBlur stdDeviation=".45433"/>
  </filter>
  <filter id="y">
   <feGaussianBlur stdDeviation="1.16477"/>
  </filter>
  <filter id="x">
   <feGaussianBlur stdDeviation=".45522"/>
  </filter>
  <filter id="w">
   <feGaussianBlur stdDeviation=".29327"/>
  </filter>
  <filter id="v">
   <feGaussianBlur stdDeviation="1.29208"/>
  </filter>
  <filter id="b">
   <feGaussianBlur stdDeviation=".44745"/>
  </filter>
  <filter id="u">
   <feGaussianBlur stdDeviation=".70705"/>
  </filter>
  <filter id="t">
   <feGaussianBlur stdDeviation=".53828"/>
  </filter>
  <filter id="s">
   <feGaussianBlur stdDeviation="2.87599"/>
  </filter>
  <filter id="r">
   <feGaussianBlur stdDeviation=".29273"/>
  </filter>
  <filter id="q">
   <feGaussianBlur stdDeviation=".42715"/>
  </filter>
  <filter id="p">
   <feGaussianBlur stdDeviation=".32668"/>
  </filter>
  <filter id="o">
   <feGaussianBlur stdDeviation=".74933"/>
  </filter>
  <filter id="n">
   <feGaussianBlur stdDeviation="2.19908"/>
  </filter>
  <filter id="c"/>
  <linearGradient id="a">
   <stop stop-color="#fff" offset="0"/>
   <stop stop-color="#fff" stop-opacity="0" offset="1"/>
  </linearGradient>
  <linearGradient id="m" x1="251.49" x2="270.2" y1="493.25" y2="399.22" gradientUnits="userSpaceOnUse">
   <stop stop-color="#1a1a1a" offset="0"/>
   <stop stop-color="#5b5b5b" offset="1"/>
  </linearGradient>
  <linearGradient id="l" x1="309.18" x2="230.17" y1="477.14" y2="548.49" gradientUnits="userSpaceOnUse">
   <stop offset="0"/>
   <stop stop-opacity="0" offset="1"/>
  </linearGradient>
  <linearGradient id="k" x1="314.01" x2="239.04" y1="426.76" y2="474.72" gradientUnits="userSpaceOnUse">
   <stop stop-color="#7f7f7f" offset="0"/>
   <stop stop-color="#333" offset="1"/>
  </linearGradient>
  <linearGradient id="j" x1="586.59" x2="651.34" y1="500.18" y2="441.74" gradientUnits="userSpaceOnUse">
   <stop stop-color="#585245" offset="0"/>
   <stop stop-color="#414141" offset="1"/>
  </linearGradient>
  <linearGradient id="e" x1="611.71" x2="597.92" y1="434.12" y2="452.26" gradientUnits="userSpaceOnUse">
   <stop stop-color="#272527" offset="0"/>
   <stop stop-color="#646458" offset="1"/>
  </linearGradient>
  <linearGradient id="i" x1="555.57" x2="560.45" y1="539.16" y2="534.62" gradientUnits="userSpaceOnUse" xlink:href="#a"/>
  <linearGradient id="h" x1="555.66" x2="560.53" y1="539.11" y2="534.58" gradientTransform="matrix(.065126 -.99788 -.99788 -.065126 1058.3 1129.7)" gradientUnits="userSpaceOnUse" xlink:href="#a"/>
  <linearGradient id="g" x1="610.29" x2="618.27" y1="463.95" y2="473.02" gradientUnits="userSpaceOnUse" xlink:href="#a"/>
  <linearGradient id="f" x1="632.4" x2="626.27" y1="487.16" y2="478.13" gradientUnits="userSpaceOnUse" xlink:href="#a"/>
  <linearGradient id="d" x1="617.01" x2="590.5" y1="428.55" y2="454.35" gradientUnits="userSpaceOnUse" xlink:href="#a"/>
 </defs>
 <g transform="translate(-136.77 -262.76)">
  <g transform="matrix(1.5566 -.13063 .13063 1.5566 72.575 -312.3)">
   <path transform="matrix(.96706 0 0 .97828 3.972 8.1724)" d="m144.85 392.55-138.28 54.5c-1e-5 -1e-5 -3.0875 3.0688-2.4062 7.1562s0.36733 5.8328 3.9375 9.5c3.6587 3.7582 3.3438 3.1562 3.3438 3.1562l66.125 53.125c0.17253 1.0643 0.436 1.9014 0.875 2.3438 0.55273 0.6488 1.9814 2.0392 3.625 3.4062 2.5068 2.6397 6.4327 6.2777 8.25 5.3438-0.41551-0.25679-0.69378-0.73994-0.875-1.5625l13.5 10.875c-1e-5 0 2.4896 2.1232 7.5 3.375 2.09 0.52214 5.8995 0.25496 9.3125-1.9062 2.0752-1.314 115.41-94.812 115.41-94.812 2.1003-1.1747 2.7299-4.1879 0.59375-4.875l-2.2188-0.6875-0.21875-7.7812-75.406 60.219-35.406 28.219c-0.80878 0.48796-5.1172 3.0124-8 3.1562-2.5311 0.12629-6.5716-0.97321-13.031-5.9062l-2.5-1.875 0.34375-0.3125c1.931 1.4434 6.375 4.7812 6.375 4.7812s4.4063 2.7219 7.8125 3.0625 8.8563-3.0719 10.219-4.0938 111.38-89.219 111.38-89.219c2.7016-2.1448 2.8443-3.7386-0.3125-5.8125-0.47398-0.18959-5.7864-2.3593-13.406-5.4375 0.31894-0.13454 0.55067-0.21875 0.65625-0.21875 0.53043 0-0.01885-0.24821-1-0.59375 0.28516-0.12161 0.50097-0.21875 0.59375-0.21875 1.8721-1e-5 -9.8438-4.2188-9.8438-4.2188l-1.4062 0.84375c-20.492-8.1338-48.925-19.021-65.531-23.531zm-115.03 73.094c14.521 10.659 32.109 23.715 47.594 35.25-0.01307 0.14173-0.02664 0.29024-0.03125 0.4375l-47.562-35.688z" fill-rule="evenodd" filter="url(#n)" opacity=".93377"/>
   <g transform="translate(-125.39 -9.7725)">
    <path d="m270.79 391.91-138.29 54.499s-3.0655 3.0655-2.3843 7.1529 0.36138 5.8406 3.9316 9.5078c3.6587 3.7582 3.3294 3.1385 3.3294 3.1385l91.518 73.53s2.4831 2.151 7.4936 3.4028c2.09 0.52215 5.8961 0.22992 9.309-1.9313 2.0752-1.3141 115.39-94.81 115.39-94.81 2.1003-1.1747 2.7501-4.1774 0.61396-4.8645l-5.0748-1.5971-113.08 90.604h-10.559l-98.779-74.595s-2.7249-7.1529-0.68123-6.8123 98.097 72.211 98.097 72.211 4.428 2.7249 7.8342 3.0656 8.856-3.0656 10.218-4.0874 111.38-89.241 111.38-89.241c2.7016-2.1447 2.8162-3.7165-0.34062-5.7905-1.7031-0.68123-62.333-25.887-89.923-33.38z" fill="url(#m)" fill-rule="evenodd" stroke="#333"/>
    <path d="m131.82 453.27s0.12227 3.1587 3.4208 8.6563c1.6141 2.6902 23.933 20.001 46.672 37.71 16.663 12.285 32.19 26.11 49.095 38.069 3.3712 2.1414 5.4201 2.2907 8.2921 2.3741 3.926 0.1141 7.266-3.3867 9.7399-5.3109 1.0849-0.84379 110.5-91.534 110.5-91.534l-0.27487-10.17-110.5 88.235s-5.1278 3.1838-8.3058 3.3424c-2.5311 0.1263-6.5946-0.95933-13.054-5.8924-1.3988-1.0682-91.806-68.874-91.806-68.874-1.9344-2.0319-3.9953-1.6595-3.7786 3.3947z" fill="#f5eac5" fill-rule="evenodd"/>
    <path d="m358.91 433.45-112.47 89.652-0.88657 14.412 113.19-94.55 0.1668-9.5146z" fill="url(#l)" fill-rule="evenodd" filter="url(#y)" opacity=".52899"/>
    <path d="m233.69 526.11-0.45642 11.411s4.1078 3.6514 8.2156 1.3693 3.6514-4.1078 3.6514-4.1078v-10.041s-4.1078 2.2821-5.9335 2.2821-6.3899-2.2821-5.4771-0.91284z" fill-rule="evenodd" filter="url(#z)" opacity=".15942"/>
    <path d="m135.95 450.75s-1.2264-0.87596-1.5767 1.2264 0.52558 6.4821 4.555 11.212c0.8873 1.0416 57.113 48.178 57.113 48.178l-58.514-46.776s-4.3384-4.2971-4.7302-5.0806c-1.2264-2.4527-2.1023-7.1829-1.4015-8.5844s0.87596-2.2775 2.1023-2.1023 2.6279 1.9271 2.4527 1.9271z" fill-rule="evenodd" filter="url(#x)" opacity=".2971"/>
    <path d="m132.12 448.81c1.166-1.3907 3.1067 0.32581 4.8496 1.3323l94.289 69.415s3.6502 2.9201 8.5893 3.2169c2.0856 0.12531 4.4012-0.21715 6.7687-1.4448 7.9744-4.1349 115.19-92.148 115.19-92.148s0.77936-2.6101-0.9091-3.142" fill="none" filter="url(#w)" opacity=".20652" stroke="#fff"/>
    <path d="m206.01 522.89c1.393 1.6352 7.7724 8.8134 10.242 7.5441-0.75851-0.46875-1.091-1.6332-1.1276-4.3952 0.01998-3.6269-0.20269-16.75-0.20269-16.75s-0.46804-3.2762 1.8721-4.6803 59.259-40.797 75.77-51.835c16.554-11.066 53.537-33.152 55.409-33.152s-9.0225-3.003-9.0225-3.003-49.144 29.954-65.057 38.847-66.461 41.655-66.461 41.655-3.4757 2.4399-2.8184 6.9208c0.48232 6.6107-0.74595 16.692 1.395 18.849z" fill-rule="evenodd" filter="url(#v)"/>
    <path d="m204.39 521.68c1.393 1.6352 8.1755 8.0072 10.645 6.7379-0.75851-0.46875-1.091-1.6332-1.1276-4.3952 0.01998-3.6269-0.20269-16.75-0.20269-16.75s-0.46804-3.2762 1.8721-4.6803 53.169-35.127 69.724-46.192c17.72-11.844 60.39-37.586 62.262-37.586s-9.8287-4.2123-9.8287-4.2123-44.306 26.729-65.057 38.847c-15.742 9.1926-66.461 41.655-66.461 41.655s-3.4757 2.4399-2.8184 6.9208c0.48232 6.6107-1.149 17.498 0.99189 19.655z" fill="url(#k)" fill-rule="evenodd"/>
    <g fill="none" opacity=".38768" stroke="#1a1a1a" stroke-width=".5">
     <path d="m337.86 416.15s-42.824 25.796-63.574 37.913c-15.742 9.1926-66.461 41.655-66.461 41.655s-3.4757 2.4399-2.8184 6.9208c0.48232 6.6107-1.149 17.498 0.99189 19.655" filter="url(#b)"/>
     <path d="m339.99 417.12s-42.809 26.039-63.559 38.156c-15.742 9.1926-66.461 41.655-66.461 41.655s-3.4757 2.4399-2.8184 6.9208c0.48232 6.6107-1.149 17.498 0.99189 19.655" filter="url(#b)"/>
     <path d="m342.15 417.65s-40.008 24.682-60.759 36.8c-15.742 9.1926-68.892 44.329-68.892 44.329s-3.4757 2.4399-2.8184 6.9208c0.48232 6.6107-1.149 17.498 0.99189 19.655" filter="url(#b)"/>
     <path d="m343.77 418.77s-38.472 23.812-59.222 35.93c-15.742 9.1926-69.864 45.545-69.864 45.545s-3.4757 2.4399-2.8184 6.9208c0.48232 6.6107-1.149 17.498 0.99189 19.655" filter="url(#b)"/>
    </g>
   </g>
   <path d="m241.00007,430.97234c-1.80488.21907-4.67205,2.46905-8.53125,8.25-.78071,1.16947-6.27428,8.57238-11.21875,15.09375-1.21095.34684-2.0625.78125-2.0625.78125l-5.1875,7.1875c-.26757.59113-.80905,1.23816-.59375,1.71875 0,0 .22932-.05416.375-.09375-.06514.07174-.23801.27093-.28125.3125 1e-005-1e-005-21.7214,33.22638-21.84375,39.1875-.69407,1.74129-1.84375,4.96875-1.84375,4.96875l3.28125-2.875c-1e-005-1e-005 1.33082-.69905 2.84375-1.9375 11.15975-9.66309 19.00402-22.30409 27.4375-34.03125l.46875-.71875c-.00873.07204-.00931.15134-.03125.21875-.68974,2.11966 6.4375-8.53125 6.4375-8.53125s.1252-.56386-.03125-1.40625c1.36908-2.14171 2.78142-4.41145 4.21875-6.78125 .09717-.0384.16727-.07935.25-.125 .96955-.08365 1.125-.75 1.125-.75s6.26949-11.09969 6.9375-12.1875c.13597-.22143.30349-.6731.40625-1.125 .19991-.48103.44632-1.10681.03125-1.53125-.07133-.07294-.21973-.16267-.34375-.25 .57463-1.75398.55996-3.40655 0-4.40625-.0496-.43005-.1532-.70862-.375-.5625-.36852-.32613-.86025-.48011-1.46875-.40625z" fill-rule="evenodd" filter="url(#o)"/>
   <g transform="matrix(.62051 -.14206 .13265 .5794 -196.79 269.91)" fill-rule="evenodd">
    <g transform="translate(-49.396 -8.5789)">
     <path d="m606.99 476.84s-44.924 46.373-47.201 56.103c-1.6733 2.595-4.5545 7.4528-4.5545 7.4528l6.0036-3.5194s2.2851-0.6547 5.0361-2.1176c20.477-11.657 36.939-29.432 53.965-45.497 0.61812-0.74174 30.905-30.515 40.972-46.267 5.3229-8.3287 1.7226-18.37-16.418-0.01204-2.7952 2.8287-34.906 31.995-37.804 33.858z" fill="url(#j)" filter="url(#c)" stroke="#000" stroke-width=".4"/>
     <path transform="matrix(.95999 0 0 .95959 24.529 17.612)" d="m563.59 535.27 3.935-1.4309s12.699-8.2276 14.488-9.6585 29.333-26.472 29.333-26.472l26.293-26.65 22.715-26.293s2.8618-5.187 3.2195-6.2602-0.35772-3.2195-0.35772-3.2195-11.268 15.203-13.593 17.528-38.813 39.171-38.813 39.171l-48.293 43.463 1.0732-0.17886z" fill="#fff" filter="url(#s)"/>
     <path d="m563.06 534.56s18.78-14.488 53.48-46.683c1.3938-1.2932 27.187-27.902 28.081-29.154s17.35-19.317 17.886-20.748 1.252-4.4715 0.35772-4.1138-2.3252 3.0406-2.6829 3.7561-32.911 36.488-34.52 37.561-62.244 59.382-62.602 59.382z" fill="#3d3727" filter="url(#t)"/>
     <path d="m658.24 434.44s-52.818 51.399-55.658 54.238-41.176 44.299-41.176 44.299l0.56794 1.4198s57.362-56.794 61.622-61.054 35.212-36.916 35.212-36.916 1.7038-1.9878-0.56794-1.9878z" fill="#fff" filter="url(#u)" opacity=".64855"/>
     <path d="m606.89 476.47s6.5884-0.56102 10.271 2.635c1.4195 1.232 5.2285 7.1278 3.906 9.4924-1.7993 3.2172 12.851-11.522 12.851-11.522s2.0183-4.5764-2.5582-10.233c-4.2548-5.2588-12.502-2.819-12.502-2.819l-10.441 9.8391c-0.61698 0.86898-1.6879 1.738-1.5267 2.6069z" fill="#1a1a1a" stroke="#1a1a1a"/>
     <path d="m559.71 533.8-4.0684 6.1354 4.8494-4.4514-0.78092-1.684z" fill="url(#i)"/>
     <path d="m562.1 536.38-6.3873 3.6602 4.7578-4.5492 1.6295 0.88894z" fill="url(#h)"/>
     <path d="m619.13 464.61-9.4903 9.1668s-1.0784 1.402-0.9706 1.8334 1.9412 0.10784 2.5883 0.21569 4.2059 1.1863 4.2059 1.1863-0.21569-0.75491-0.32354-1.5098-0.32353-2.1569 3.3432-5.1765 5.5001-4.6373 5.9314-4.7452 2.049-0.43138 3.0196-0.21569 0.10785-0.9706-0.86275-1.1863-5.6079-0.53922-7.4413 0.43138z" fill="url(#g)" filter="url(#c)"/>
     <path d="m621.62 483.16s1.2941 2.4804 0.86276 3.8824 11.108-10.137 11.108-10.137 0.43138-3.7746-0.21568-4.853 0.53545 3.0156-5.6079 8.304c-3.1987 2.7536-5.8236 2.804-6.1471 2.804z" fill="url(#f)" filter="url(#r)"/>
    </g>
    <path d="m606.34 432.23s1.3065-1.1613 0.58065 0.87097-16.113 19.016-15.968 20.758 0.14516 2.4678 1.7419 2.7581 2.7581-0.72581 2.7581-0.72581 15.968-18.145 16.403-18.871 1.4516-1.8871 0.87097-2.9032-3.3387-3.3387-3.3387-3.3387-2.3226 0-3.0484 1.4516z" filter="url(#q)" opacity=".73188"/>
    <path d="m607.79 432.08s2.1788-1.8398 1.453 0.19246-14.562 18.338-15.968 20.274c-1.0271 1.4144-0.72721 3.6309 0.86957 3.9212s2.0791-0.77311 2.0791-0.77311 13.482-15.869 14.886-17.402c0.57171-0.62417 1.6455-2.5656 1.4526-3.6787-0.19987-1.1531-1.7241-3.9846-1.7241-3.9846s-2.3226 0-3.0484 1.4516z" fill="url(#e)" stroke="#3a3636" stroke-width=".3"/>
    <path d="m609.07 433.92-15.879 19.99s-0.28355 0.85066 0.42533 1.5595 0.5671-1.4178 0.5671-1.4178 14.745-19.99 16.446-19.565 1.2405 2.2448 1.2405 2.2448l-0.14178-2.1266c-0.85065-0.85065-1.3823-2.9537-1.3823-2.9537l-1.276 1.276v0.99243z" fill="url(#d)" filter="url(#p)" opacity=".40728"/>
   </g>
  </g>
 </g>
</svg>
