<?xml version="1.0" encoding="UTF-8"?>
<svg version="1.0" viewBox="0 0 575.27 722.15" xmlns="http://www.w3.org/2000/svg" xmlns:xlink="http://www.w3.org/1999/xlink">
 <defs>
  <filter id="e">
   <feGaussianBlur stdDeviation="7.4557397"/>
  </filter>
  <linearGradient id="f" x1="23.914" x2="430.55" y1="558.52" y2="101.38" gradientUnits="userSpaceOnUse">
   <stop stop-color="#fc0" offset="0"/>
   <stop stop-color="#fd5" offset="1"/>
  </linearGradient>
 </defs>
 <g transform="translate(-9.7504 -252.21)">
  <g transform="matrix(.78457 0 0 .78457 2.1005 209.9)">
   <rect x="72.857" y="76.843" width="628.48" height="862.67" filter="url(#e)" opacity=".522"/>
   <path id="b" d="m129.17 155.76h524.28m-524.28 36h524.28" fill="#59f" fill-rule="evenodd" stroke="#59f" stroke-width="2"/>
   <rect x="62.857" y="66.843" width="628.48" height="862.67" fill="#fff" stroke="#999" stroke-linecap="round" stroke-linejoin="round"/>
   <use width="744.09448" height="1052.3622" xlink:href="#b"/>
   <use transform="translate(4.5929e-7 72)" width="744.09448" height="1052.3622" xlink:href="#b"/>
   <use transform="translate(4.5929e-7 144)" width="744.09448" height="1052.3622" xlink:href="#b"/>
   <use transform="translate(4.5929e-7 216)" width="744.09448" height="1052.3622" xlink:href="#b"/>
   <use transform="translate(4.5929e-7 288)" width="744.09448" height="1052.3622" xlink:href="#b"/>
   <use transform="translate(4.5929e-7 360)" width="744.09448" height="1052.3622" xlink:href="#b"/>
   <use transform="translate(4.5929e-7 432)" width="744.09448" height="1052.3622" xlink:href="#b"/>
   <use transform="translate(4.5929e-7 504)" width="744.09448" height="1052.3622" xlink:href="#b"/>
   <use transform="translate(4.5929e-7 576)" width="744.09448" height="1052.3622" xlink:href="#b"/>
   <use transform="translate(4.5929e-7 648)" width="744.09448" height="1052.3622" xlink:href="#b"/>
   <g fill="#d40000" fill-rule="evenodd" stroke="#d40000">
    <path d="m177.93 99.775v799.28"/>
    <path d="m629.55 99.775v799.28"/>
   </g>
   <g stroke-linecap="round" stroke-linejoin="round" stroke-width="2">
    <rect transform="rotate(6.7196)" x="88.561" y="56.994" width="404.61" height="395.11" fill="url(#f)" opacity=".939" stroke="#d4aa00"/>
    <g fill="#acf" stroke="#3771c8">
     <path d="m63.888 114.85v3.9375l56.469 13.125c5.14 1.1862 8.3384 3.1097 10 5.0312 1.6617 1.9215 1.9392 3.7531 1.3438 5.5312-1.1852 3.5394-6.7787 7.1495-15.688 5.8438l-52.125-11.375v3.9062l51.312 11.219c0.03952 0.00967 0.08498 0.02401 0.125 0.03125 10.262 1.5529 18.084-2.4057 20.094-8.4062 1.0046-3.0003 0.31243-6.4363-2.0938-9.2188s-6.3936-4.997-12.094-6.3125l-57.344-13.312z"/>
     <path d="m62.284 140.31v-3.9062l-19.094-4.1875c-0.68465-0.15931-1.4008 0.05589-1.875 0.5625-0.47424 0.5066-0.62312 1.2472-0.40625 1.9062 0.21688 0.65901 0.78059 1.1378 1.4688 1.2812l19.906 4.3438zm-11.562-37.969c-0.68655-0.15588-1.4037 0.08305-1.875 0.59375-0.47132 0.51069-0.62921 1.2168-0.40625 1.875 0.22295 0.65822 0.77813 1.1445 1.4688 1.2812 12.464 2.6484 75.252 17.293 107.03 24.156 7.5673 1.6343 11.567 8.5987 13.312 11.75 1.7454 3.1513 1.4579 6.7822-0.40625 10.375-3.7283 7.1857-13.875 15.35-23.906 13.219l-106.25-24.562c-13.655-2.9013-17.915-11.088-16.438-17.625 1.4776-6.5369 8.9103-12.158 22.094-9.0938l16.938 3.9375v-3.9375l-16.094-3.75c-14.617-3.3976-24.762 3.1748-26.75 11.969-1.9878 8.794 4.3833 19.051 19.438 22.25l106.25 24.562c12.026 2.5553 23.606-6.3892 28.188-15.219 2.2906-4.4148 2.797-9.5082 0.34375-13.938-2.4533-4.4294-7.644-11.903-15.906-13.688-31.539-6.8115-93.928-21.372-107.03-24.156z"/>
    </g>
   </g>
   <path id="a" d="m83.59 656.77c-1.9878 8.794 4.3978 19.058 19.452 22.257l106.24 22.574c12.026 2.5553 23.61-4.3919 28.191-13.221 2.2906-4.4148 2.797-9.5154 0.34372-13.945-2.4532-4.4294-7.6571-7.8946-15.919-9.679-31.539-6.8115-93.918-23.372-107.02-26.156-0.68655-0.15588-1.4026 0.06353-1.8739 0.57423-0.47132 0.51068-0.62491 1.2335-0.40195 1.8917 0.22295 0.65822 0.78792 1.1498 1.4785 1.2866 12.464 2.6484 75.243 19.293 107.02 26.156 7.5673 1.6343 11.56 4.5936 13.306 7.7449 1.7454 3.1513 1.4555 6.7686-0.40864 10.361-3.7283 7.1857-13.886 13.365-23.918 11.234l-106.24-22.574c-13.655-2.9013-17.921-11.097-16.443-17.634 1.4776-6.5369 8.9075-12.159 22.091-9.0942l73.422 17.071c5.14 1.1862 8.3378 3.1139 9.9994 5.0354 1.6617 1.9215 1.9319 3.7452 1.3365 5.5234-1.1852 3.5394-6.7701 7.1511-15.679 5.8453l-71.22-15.546c-0.68465-0.15931-1.4008 0.05531-1.8751 0.56192-0.47424 0.5066-0.63329 1.2269-0.41642 1.8859 0.21688 0.65901 0.77619 1.1549 1.4644 1.2983l71.235 15.549c0.03952 0.00966 0.07932 0.01812 0.11934 0.02536 10.262 1.5529 18.076-2.3861 20.085-8.3867 1.0046-3.0003 0.31547-6.4554-2.0907-9.2379s-6.3866-4.9754-12.087-6.2909l-73.422-17.071c-14.617-3.3976-24.781 3.1669-26.769 11.961z" fill="#acf" stroke="#3771c8" stroke-linecap="round" stroke-linejoin="round" stroke-width="2"/>
   <use transform="matrix(.47481 .88009 -.88009 .47481 905.37 137.55)" width="744.09448" height="1052.3622" fill="#7900ff" stroke="#7900ff" xlink:href="#a"/>
   <use transform="matrix(.039353 -.99923 .99923 .039353 -95.388 464.88)" width="744.09448" height="1052.3622" fill="#ff00f6" stroke="#ff00f6" xlink:href="#a"/>
   <use transform="matrix(.8973 .44143 -.44143 .8973 590.83 184.94)" width="744.09448" height="1052.3622" fill="#ff0034" stroke="#ff0034" xlink:href="#a"/>
   <use transform="matrix(.68177 -.73157 .73157 .68177 -424.83 497.26)" width="744.09448" height="1052.3622" fill="#a600ff" stroke="#a600ff" xlink:href="#a"/>
   <use transform="matrix(.7453 .66673 -.66673 .7453 552.76 261.09)" width="744.09448" height="1052.3622" fill="#dc00ff" stroke="#dc00ff" xlink:href="#a"/>
   <use transform="matrix(.20478 -.97881 .97881 .20478 -339.92 718.22)" width="744.09448" height="1052.3622" fill="#9c02fd" stroke="#9c02fd" xlink:href="#a"/>
   <use transform="matrix(.25307 .96745 -.96745 .25307 881.03 409.33)" width="744.09448" height="1052.3622" fill="#0027ff" stroke="#0027ff" xlink:href="#a"/>
   <use transform="matrix(.27175 .96237 -.96237 .27175 914.1 435.65)" width="744.09448" height="1052.3622" fill="#ffe200" stroke="#ffe200" xlink:href="#a"/>
   <use transform="matrix(.99776 .066961 -.066961 .99776 225.2 153.74)" width="744.09448" height="1052.3622" fill="#5dff00" stroke="#5dff00" xlink:href="#a"/>
   <use transform="matrix(.81417 .58062 -.58062 .81417 624.37 204.81)" width="744.09448" height="1052.3622" fill="#ffc100" stroke="#ffc100" xlink:href="#a"/>
   <use transform="matrix(.9733 -.22955 .22955 .9733 132.45 56.546)" width="744.09448" height="1052.3622" fill="#7fdf20" stroke="#7fdf20" xlink:href="#a"/>
   <use transform="matrix(.99992 -.012595 .012595 .99992 258.84 63.506)" width="744.09448" height="1052.3622" fill="#b204fb" stroke="#b204fb" xlink:href="#a"/>
   <use transform="matrix(.58038 -.81434 .81434 .58038 -237.72 527.53)" width="744.09448" height="1052.3622" fill="#ff0004" stroke="#ff0004" xlink:href="#a"/>
   <use transform="matrix(.93645 .35079 -.35079 .93645 508.19 119.72)" width="744.09448" height="1052.3622" fill="#b200ff" stroke="#b200ff" xlink:href="#a"/>
   <use transform="matrix(.63751 .77044 -.77044 .63751 864.73 301.41)" width="744.09448" height="1052.3622" fill="#04ff00" stroke="#04ff00" xlink:href="#a"/>
   <use transform="matrix(.37276 -.92793 .92793 .37276 -174.01 509.22)" width="744.09448" height="1052.3622" fill="#4c00ff" stroke="#4c00ff" xlink:href="#a"/>
   <use transform="matrix(.99006 -.14062 .14062 .99006 244.8 97.718)" width="744.09448" height="1052.3622" fill="#6f00ff" stroke="#6f00ff" xlink:href="#a"/>
   <use transform="matrix(.96563 -.25993 .25993 .96563 210.61 193.85)" width="744.09448" height="1052.3622" fill="#ff002b" stroke="#ff002b" xlink:href="#a"/>
   <use transform="matrix(.020247 .9998 -.9998 .020247 1158.4 645.97)" width="744.09448" height="1052.3622" fill="#ffdb00" stroke="#ffdb00" xlink:href="#a"/>
   <use transform="matrix(.57172 .82045 -.82045 .57172 989.52 363.28)" width="744.09448" height="1052.3622" fill="#2aff00" stroke="#2aff00" xlink:href="#a"/>
   <use transform="matrix(.96807 .25069 -.25069 .96807 614.86 -71.821)" width="744.09448" height="1052.3622" fill="#006aff" stroke="#006aff" xlink:href="#a"/>
   <use transform="matrix(.61862 -.78569 .78569 .61862 -14.968 434.27)" width="744.09448" height="1052.3622" fill="#c4ff00" stroke="#c4ff00" xlink:href="#a"/>
   <use transform="matrix(.8143 .58044 -.58044 .8143 928.05 145.41)" width="744.09448" height="1052.3622" fill="#1400ff" stroke="#1400ff" xlink:href="#a"/>
   <use transform="matrix(.99999 .0045594 -.0045594 .99999 429.51 171.95)" width="744.09448" height="1052.3622" fill="#00fff3" stroke="#00fff3" xlink:href="#a"/>
   <use transform="matrix(.42542 .905 -.905 .42542 1208 436.29)" width="744.09448" height="1052.3622" fill="#ff004c" stroke="#ff004c" xlink:href="#a"/>
   <rect x="9.7504" y="53.921" width="733.23" height="920.44" opacity="0" stroke-width="2"/>
  </g>
 </g>
</svg>
