<?xml version="1.0" standalone="no"?>
<!DOCTYPE svg PUBLIC "-//W3C//DTD SVG 20010904//EN"
 "http://www.w3.org/TR/2001/REC-SVG-20010904/DTD/svg10.dtd">
<svg version="1.0" xmlns="http://www.w3.org/2000/svg"
 width="260.000000pt" height="260.000000pt" viewBox="0 0 260.000000 260.000000"
 preserveAspectRatio="xMidYMid meet">
<metadata>
Created by potrace 1.11, written by Peter Selinger 2001-2013
</metadata>
<g transform="translate(0.000000,260.000000) scale(0.100000,-0.100000)"
fill="#000000" stroke="none">
<path d="M0 1565 l0 -1034 37 -7 c20 -4 46 -15 57 -25 25 -24 37 -24 43 1 6
23 23 27 23 6 0 -16 43 -26 111 -26 27 0 49 -4 49 -10 0 -6 47 -10 120 -10
102 0 120 -2 120 -16 0 -8 4 -13 9 -9 5 3 12 -3 14 -12 4 -17 5 -17 6 0 0 9 8
17 16 17 18 0 20 -26 3 -33 -10 -4 -9 -8 2 -16 8 -5 11 -14 6 -18 -4 -4 -18 4
-31 19 l-24 27 3 -24 c2 -14 6 -28 11 -33 4 -4 5 -1 1 5 -9 16 6 17 21 2 16
-16 35 -1 27 23 -4 13 -2 18 4 14 6 -3 9 5 8 19 0 14 -5 25 -10 25 -5 0 -7 3
-3 6 3 4 22 -3 40 -14 26 -15 59 -21 132 -25 101 -6 121 -11 86 -22 -12 -3
-21 -13 -21 -22 0 -12 3 -13 14 -4 10 8 33 9 86 1 73 -10 96 -7 84 12 -5 7 -2
8 5 3 9 -5 10 -10 2 -18 -20 -20 -12 -27 29 -27 22 0 40 -4 40 -10 0 -5 5 -10
11 -10 5 0 7 5 4 10 -4 6 5 10 19 10 14 0 26 -4 26 -10 0 -14 40 -6 50 10 14
23 23 4 10 -20 -7 -14 -17 -19 -27 -16 -13 5 -14 4 -3 -9 14 -17 35 -21 25 -5
-3 6 -2 10 4 10 5 0 12 -6 15 -12 3 -7 3 -1 0 15 -8 34 5 35 36 2 13 -14 30
-23 37 -21 7 3 13 1 13 -4 0 -6 7 -10 15 -10 9 0 12 6 8 18 -5 15 -4 15 9 -2
14 -17 18 -14 74 48 32 36 62 66 66 66 8 0 -24 -40 -69 -86 -39 -40 -42 -52
-8 -30 21 14 24 14 19 1 -4 -8 -12 -15 -20 -15 -8 0 -14 -4 -14 -10 0 -5 7 -7
16 -3 9 3 20 0 24 -7 7 -11 11 -11 25 0 14 11 17 10 22 -9 4 -17 8 -19 14 -10
6 11 17 8 49 -10 30 -17 57 -23 101 -23 42 0 59 -4 59 -13 0 -7 7 -15 15 -19
8 -3 15 -1 15 4 0 6 7 10 16 10 10 0 14 -6 11 -14 -7 -17 21 -26 85 -26 25 0
48 -5 50 -11 4 -13 88 -30 88 -18 0 19 28 8 34 -14 6 -22 7 -22 21 -3 8 11 15
14 15 8 0 -8 9 -10 26 -6 17 4 29 2 34 -6 7 -12 48 -21 98 -22 12 0 22 -6 22
-13 0 -23 19 -28 107 -30 46 -1 89 -7 94 -12 5 -5 32 -6 62 -3 28 4 54 3 55
-1 19 -49 22 131 22 1291 l0 1300 -1300 0 -1300 0 0 -1035z m984 766 c-69 -51
-135 -155 -155 -245 -10 -45 -18 -60 -36 -67 -13 -5 -24 -14 -24 -21 -1 -7 -3
-26 -5 -43 -4 -47 -8 -59 -24 -73 -13 -11 -9 -12 20 -10 l35 3 2 -49 c3 -80
13 -65 13 21 0 127 8 169 37 182 46 21 60 15 59 -26 0 -89 19 -218 36 -240 6
-7 3 -13 -10 -17 -17 -6 -18 -11 -7 -82 10 -63 10 -78 -2 -90 -8 -8 -10 -14
-5 -14 5 0 15 -42 21 -92 7 -51 16 -110 21 -131 4 -21 4 -39 -1 -43 -15 -9
-10 -34 6 -34 9 0 15 -9 15 -25 0 -14 -4 -25 -9 -25 -5 0 -12 -7 -15 -16 -4
-10 -2 -13 6 -8 7 5 9 2 5 -8 -6 -18 12 -92 37 -150 12 -28 22 -38 39 -38 19
0 27 -14 55 -98 38 -109 41 -125 27 -132 -20 -10 -182 362 -211 487 -3 15 -15
53 -24 83 -22 67 -58 236 -75 350 -11 73 -13 78 -13 35 -1 -27 3 -72 8 -100 6
-38 5 -54 -6 -66 -8 -9 -12 -18 -9 -20 2 -3 7 -30 10 -61 6 -52 4 -57 -21 -77
-41 -32 -70 -27 -94 17 -20 36 -21 36 -15 7 13 -69 15 -117 4 -138 -12 -21
-12 -21 -44 15 -20 24 -39 36 -53 35 -12 -1 -22 -5 -22 -9 0 -4 -9 -8 -20 -8
-14 0 -26 14 -41 45 -25 54 -42 68 -34 28 6 -27 6 -27 -9 -9 -9 11 -16 26 -16
34 0 7 -5 10 -11 6 -6 -4 -8 -21 -5 -43 5 -32 5 -34 -5 -11 -6 14 -16 36 -23
49 -6 14 -11 77 -11 151 0 124 0 127 28 160 24 28 68 60 83 60 2 0 1 -13 -2
-30 -4 -16 -3 -50 0 -75 l7 -45 24 17 c13 10 19 19 14 21 -4 2 -4 11 1 20 17
30 28 112 17 119 -6 4 -5 10 4 17 17 13 71 120 67 133 -3 9 33 85 38 81 1 -2
-6 -37 -17 -78 -10 -40 -19 -86 -19 -102 0 -28 1 -28 24 -13 17 12 25 28 30
65 4 27 11 52 16 55 16 10 11 25 -7 25 -14 0 -9 8 16 30 18 17 31 30 28 30 -3
0 1 12 9 28 12 24 12 27 -1 30 -8 2 -15 7 -15 12 0 14 51 70 60 65 4 -3 14 3
21 12 12 14 11 15 -11 9 -43 -12 70 85 142 121 78 41 94 42 42 4z m-298 -263
c-19 -26 -20 -20 -5 19 6 15 13 22 16 16 2 -7 -3 -23 -11 -35z m365 -134 c6
-8 4 -14 -6 -18 -12 -4 -15 2 -14 32 1 21 3 29 6 17 3 -11 9 -25 14 -31z m16
-147 c12 -7 12 -11 -3 -21 -16 -12 -15 -15 1 -49 9 -21 15 -48 13 -62 -3 -14
-1 -25 3 -25 5 0 9 -12 9 -27 0 -15 4 -40 10 -57 5 -17 12 -48 15 -68 4 -27
11 -38 23 -38 14 0 17 -11 17 -75 0 -41 -3 -75 -7 -75 -4 0 -6 -15 -3 -32 2
-18 9 -73 14 -123 6 -49 14 -103 20 -120 9 -29 63 -257 76 -322 10 -48 -2 -40
-15 10 -6 23 -17 65 -25 92 -19 66 -79 320 -111 465 -32 148 -63 382 -69 524
-4 98 -3 105 7 61 6 -27 17 -54 25 -58z m249 -325 c11 -194 1 -228 -14 -51
-14 161 -15 227 -3 214 5 -6 13 -79 17 -163z m-533 -116 c12 -10 15 -16 7 -21
-8 -5 -8 -11 1 -21 9 -11 9 -18 1 -26 -8 -8 -13 -4 -17 15 -4 14 -13 31 -21
38 -8 6 -11 15 -8 20 7 12 16 11 37 -5z m-340 -36 c3 -11 1 -18 -4 -14 -5 3
-9 12 -9 20 0 20 7 17 13 -6z m137 -45 c0 -5 -5 -3 -10 5 -5 8 -10 20 -10 25
0 6 5 3 10 -5 5 -8 10 -19 10 -25z m-116 0 c-4 -8 -8 -15 -10 -15 -2 0 -4 7
-4 15 0 8 4 15 10 15 5 0 7 -7 4 -15z m276 -49 c0 -2 15 -40 34 -84 l34 -79
-25 5 c-24 5 -92 84 -93 109 0 6 -6 14 -12 17 -9 3 -7 9 6 20 18 14 56 22 56
12z m160 -131 c-8 -10 -9 -15 -2 -15 6 0 9 -6 6 -13 -3 -8 2 -20 11 -27 12
-10 13 -16 3 -28 -10 -13 -10 -14 0 -8 7 4 12 2 12 -7 0 -8 14 -41 30 -72 17
-32 29 -60 27 -62 -6 -5 -80 106 -105 158 -12 26 -29 53 -38 60 -19 16 -2 29
40 29 24 0 27 -2 16 -15z m-66 -81 c3 -8 2 -12 -4 -9 -6 3 -10 10 -10 16 0 14
7 11 14 -7z m26 -34 c0 -5 -4 -10 -10 -10 -5 0 -10 5 -10 10 0 6 5 10 10 10 6
0 10 -4 10 -10z m-370 -71 c0 -5 -4 -9 -10 -9 -5 0 -10 7 -10 16 0 8 5 12 10
9 6 -3 10 -10 10 -16z m-390 -89 c0 -5 -4 -10 -10 -10 -5 0 -10 5 -10 10 0 6
5 10 10 10 6 0 10 -4 10 -10z m941 -287 c13 -16 12 -17 -3 -4 -10 7 -18 15
-18 17 0 8 8 3 21 -13z m141 -122 c26 -25 44 -49 41 -57 -3 -8 -9 -12 -14 -9
-4 3 -5 13 -2 22 5 13 2 15 -19 10 -30 -8 -42 1 -27 20 9 10 6 18 -12 34 -56
47 -89 79 -89 86 0 7 28 -17 122 -106z m-100 21 c3 -12 -1 -18 -12 -18 -11 0
-15 6 -12 18 2 10 8 18 12 18 4 0 10 -8 12 -18z m43 -21 c-6 -5 -25 10 -25 20
0 5 6 4 14 -3 8 -7 12 -15 11 -17z m125 -1 c0 -5 -4 -10 -10 -10 -5 0 -10 5
-10 10 0 6 5 10 10 10 6 0 10 -4 10 -10z m90 -6 c0 -8 -4 -12 -10 -9 -5 3 -10
10 -10 16 0 5 5 9 10 9 6 0 10 -7 10 -16z m-199 -7 c-6 -8 -9 -16 -6 -18 2 -3
-4 -5 -14 -5 -10 0 -18 6 -18 12 0 7 6 10 13 7 6 -2 15 0 19 6 3 6 9 11 12 11
3 0 0 -6 -6 -13z"/>
<path d="M824 2153 c-3 -10 -10 -28 -15 -41 -13 -33 -11 -40 5 -17 14 22 30
75 21 75 -3 0 -8 -8 -11 -17z"/>
<path d="M622 1795 c0 -16 2 -22 5 -12 2 9 2 23 0 30 -3 6 -5 -1 -5 -18z"/>
<path d="M651 1500 c0 -8 4 -24 9 -35 5 -13 9 -14 9 -5 0 8 -4 24 -9 35 -5 13
-9 14 -9 5z"/>
<path d="M411 1474 c0 -11 3 -14 6 -6 3 7 2 16 -1 19 -3 4 -6 -2 -5 -13z"/>
<path d="M920 1270 c0 -5 5 -10 11 -10 5 0 7 5 4 10 -3 6 -8 10 -11 10 -2 0
-4 -4 -4 -10z"/>
<path d="M1165 380 c-3 -5 -2 -10 4 -10 5 0 13 5 16 10 3 6 2 10 -4 10 -5 0
-13 -4 -16 -10z"/>
<path d="M820 380 c0 -5 5 -10 10 -10 6 0 10 5 10 10 0 6 -4 10 -10 10 -5 0
-10 -4 -10 -10z"/>
<path d="M1282 265 c-2 -26 11 -34 24 -14 3 6 0 17 -8 25 -12 12 -14 10 -16
-11z"/>
<path d="M1375 261 c-11 -5 -25 -6 -30 -4 -16 5 -69 -53 -56 -61 6 -4 11 0 11
10 0 13 3 14 15 4 18 -15 20 -77 3 -83 -9 -3 -10 -8 -3 -16 7 -7 30 -8 70 -3
l60 7 -1 44 c-1 29 -7 48 -17 56 -10 7 -17 22 -17 34 0 23 -4 24 -35 12z m45
-75 c0 -2 -7 -7 -16 -10 -8 -3 -12 -2 -9 4 6 10 25 14 25 6z"/>
<path d="M1535 210 c-3 -5 1 -10 9 -10 9 0 16 5 16 10 0 6 -4 10 -9 10 -6 0
-13 -4 -16 -10z"/>
<path d="M1286 167 c3 -10 9 -15 12 -12 3 3 0 11 -7 18 -10 9 -11 8 -5 -6z"/>
</g>
</svg>
